<svg width="60" height="72" viewBox="0 0 60 72" fill="none" xmlns="http://www.w3.org/2000/svg">
<path d="M17.6835 37.7203H12.7499C12.9729 37.1623 13.3229 36.6914 13.7593 36.3617C14.1958 36.0321 14.701 35.8572 15.2167 35.8572C15.7324 35.8572 16.2376 36.0321 16.674 36.3617C17.1105 36.6914 17.4604 37.1623 17.6835 37.7203ZM25.5771 35.8511C25.5786 35.0835 25.6257 34.317 25.7181 33.5575C25.3351 33.6316 24.9695 33.8026 24.6458 34.0592C24.3221 34.3159 24.0476 34.6522 23.8406 35.046C23.6335 35.4397 23.4986 35.8818 23.4449 36.3429C23.3912 36.804 23.4199 37.2735 23.529 37.7203H25.673C25.6124 37.0999 25.5823 36.4757 25.5827 35.8511H25.5771ZM14.4991 23.7535C12.6667 21.5546 10.2056 19.2305 8.03484 19.2305H7.85437L7.96863 21.9369C9.01312 21.876 10.6976 23.1041 12.5963 25.3198C12.7156 25.4586 12.8326 25.5979 12.9472 25.7378C13.2587 25.657 13.5759 25.6123 13.8945 25.6042C14.0098 24.95 14.2161 24.3238 14.5048 23.7518L14.4991 23.7535ZM17.355 21.0911C17.6583 20.6636 17.9299 20.2051 18.1669 19.721C18.5256 18.9907 18.8056 18.2086 19.0001 17.3936C19.1939 16.5838 19.3004 15.7476 19.3172 14.9053C19.3321 14.1216 19.2663 13.3387 19.1213 12.5744C19.0572 12.2415 18.9786 11.913 18.8857 11.59C18.8088 11.323 18.7213 11.0605 18.6237 10.8034C18.5556 10.6253 18.4817 10.4504 18.4023 10.2791C18.3756 10.2182 18.3473 10.1692 18.3319 10.1371L18.3064 10.0879L18.2643 10.1132C18.236 10.1302 18.1923 10.1557 18.143 10.1894C17.9986 10.2846 17.8575 10.3867 17.72 10.4955C17.5241 10.6515 17.3359 10.821 17.1562 11.0031C16.9362 11.2196 16.7259 11.45 16.5261 11.6931C16.0692 12.2526 15.6715 12.8775 15.3421 13.5539C14.9887 14.2819 14.7144 15.0612 14.526 15.8728C14.3321 16.6866 14.225 17.5267 14.2073 18.3729C14.1935 19.1566 14.2593 19.9393 14.4033 20.7038C14.5192 21.3103 14.6854 21.9013 14.8995 22.4681C14.9545 22.6169 15.0081 22.7437 15.056 22.8503C15.6733 22.0182 16.4712 21.4085 17.3606 21.0894L17.355 21.0911ZM57.4815 14.9172C57.4548 14.8985 57.4124 14.868 57.3618 14.8359C57.2177 14.7429 57.07 14.6582 56.9191 14.5822C56.7316 14.4875 56.509 14.3826 56.2581 14.2862C55.9867 14.1826 55.711 14.0962 55.432 14.0275C54.7917 13.8724 54.1379 13.8127 53.4854 13.8499C52.7838 13.8899 52.0893 14.0377 51.4189 14.2896C50.7478 14.539 50.1056 14.8891 49.5076 15.3316C48.9519 15.7443 48.4402 16.2367 47.9838 16.7981L47.9203 16.8794C48.569 17.8004 49.0703 18.8572 49.399 19.9967C49.8386 20.0602 50.2817 20.08 50.724 20.0559C51.4258 20.0162 52.1206 19.8701 52.7919 19.6213C53.4637 19.3756 54.1065 19.0277 54.7047 18.586C55.261 18.1743 55.7728 17.6818 56.2284 17.1195C56.4276 16.874 56.6158 16.616 56.7922 16.3465C56.9544 16.0962 57.0911 15.8628 57.1997 15.653C57.3082 15.4432 57.3913 15.2707 57.445 15.1455C57.4731 15.0846 57.4929 15.0306 57.5055 14.9967L57.5266 14.9442L57.4815 14.9172ZM47.4454 5.62753C47.3946 5.38889 47.3453 5.16403 47.3298 5.0625L45.1055 5.553C45.135 5.74762 45.1857 5.98092 45.2549 6.30239C45.5846 7.83492 46.3445 11.3667 45.4283 14.491C46.1213 14.9235 46.7592 15.4725 47.3227 16.1215C48.8211 12.0535 47.8513 7.53891 47.4397 5.62739L47.4454 5.62753ZM21.1144 66.9375H35.4837C40.4289 66.9375 45.1716 64.5801 48.6683 60.384C52.1651 56.1878 54.1296 50.4966 54.1296 44.5624V40.4266H2.47266V44.5641C2.47303 50.4971 4.43709 56.1871 7.93293 60.3828C11.4288 64.5784 16.1701 66.9362 21.1144 66.9375ZM49.8444 35.8511C49.8473 32.4528 48.7542 29.1849 46.794 26.7322C47.2468 25.7911 47.5131 24.7376 47.5724 23.6532C47.6317 22.5688 47.4824 21.4825 47.136 20.4784C46.7897 19.4743 46.2555 18.5792 45.5749 17.8624C44.8943 17.1455 44.0854 16.626 43.2108 16.3442C42.3362 16.0623 41.4193 16.0255 40.5309 16.2367C39.6426 16.4479 38.8066 16.9014 38.0877 17.5622C37.3687 18.2229 36.7859 19.0732 36.3845 20.0474C35.9831 21.0215 35.7737 22.0933 35.7725 23.1801C33.2264 24.0659 31.0327 26.0258 29.5954 28.6988C28.1582 31.3719 27.5741 34.5781 27.9509 37.727H49.7289C49.8042 37.1058 49.8428 36.4789 49.8444 35.8511ZM21.1665 36.8C21.1661 35.3462 21.6082 33.9423 22.4098 32.8521C22.1474 32.2544 21.7379 31.7681 21.237 31.4595C20.7362 31.151 20.1683 31.035 19.6106 31.1274C19.0529 31.2198 18.5324 31.5161 18.12 31.976C17.7076 32.4359 17.4233 33.0371 17.3057 33.6978C17.9819 34.0737 18.5798 34.6257 19.056 35.3136C19.5322 36.0015 19.8747 36.8081 20.0586 37.6747C20.4504 37.6604 20.835 37.5449 21.1862 37.3362C21.1732 37.1579 21.1666 36.979 21.1665 36.8ZM11.8632 34.6958C11.5205 33.9403 10.9447 33.376 10.2592 33.124C9.57383 32.872 8.83341 32.9524 8.19678 33.3478C7.56016 33.7433 7.07804 34.4224 6.85382 35.2395C6.6296 36.0566 6.68114 36.9466 6.99738 37.7186H10.3593C10.597 36.5534 11.1204 35.5005 11.8618 34.6958H11.8632ZM21.2201 25.3181C20.9613 24.72 20.5555 24.2319 20.0578 23.9198C19.5601 23.6077 18.9944 23.4868 18.4375 23.5734C17.8806 23.66 17.3593 23.9499 16.9443 24.4039C16.5293 24.8579 16.2406 25.4541 16.1174 26.1115C17.0908 26.6597 17.8921 27.5679 18.4037 28.7028C18.8368 28.5282 19.288 28.4263 19.7443 28.4001C19.965 27.2176 20.479 26.1432 21.2186 25.3181H21.2201ZM24.6185 26.4177C24.0101 26.4163 23.4187 26.6579 22.9373 27.1044C22.456 27.5509 22.1122 28.1769 21.9601 28.8838C22.9089 29.3759 23.7082 30.2069 24.2493 31.2638C24.8556 30.9597 25.5063 30.8034 26.1635 30.8038H26.2636C26.4947 29.971 26.7837 29.1629 27.1276 28.3882C26.9142 27.8027 26.5633 27.3046 26.1177 26.9546C25.6721 26.6046 25.1512 26.418 24.6186 26.4177H24.6185ZM16.4712 30.1305C16.2254 29.5326 15.834 29.0387 15.3487 28.7142C14.8635 28.3897 14.3075 28.25 13.7545 28.3137C13.2016 28.3774 12.6779 28.6415 12.2529 29.0708C11.828 29.5001 11.522 30.0744 11.3755 30.7174C12.4217 31.2471 13.2877 32.1861 13.8325 33.3816C14.2453 33.2391 14.6717 33.1612 15.1011 33.1498C15.3021 32.0044 15.7785 30.9546 16.4712 30.1305Z" fill="black"/>
</svg>
