<svg width="25" height="26" viewBox="0 0 25 26" fill="none" xmlns="http://www.w3.org/2000/svg">
<path d="M17.7081 2.18996C19.0883 2.19408 20.4108 2.74418 21.3867 3.72011C22.3626 4.69604 22.9127 6.0185 22.9169 7.39866V17.815C22.9127 19.1951 22.3626 20.5176 21.3867 21.4935C20.4108 22.4694 19.0883 23.0195 17.7081 23.0237H7.29185C5.91169 23.0195 4.58922 22.4694 3.61329 21.4935C2.63737 20.5176 2.08727 19.1951 2.08315 17.815V7.39866C2.08727 6.0185 2.63737 4.69604 3.61329 3.72011C4.58922 2.74418 5.91169 2.19408 7.29185 2.18996H17.7081ZM17.7081 0.106812H7.29185C3.28125 0.106812 0 3.38806 0 7.39866V17.815C0 21.8256 3.28125 25.1068 7.29185 25.1068H17.7081C21.7188 25.1068 25 21.8256 25 17.815V7.39866C25 3.38806 21.7188 0.106812 17.7081 0.106812Z" fill="white"/>
<path d="M19.2706 7.39911C18.9616 7.39911 18.6595 7.30747 18.4026 7.13578C18.1456 6.96409 17.9453 6.72006 17.8271 6.43455C17.7088 6.14904 17.6779 5.83488 17.7382 5.53178C17.7985 5.22869 17.9473 4.95027 18.1658 4.73176C18.3843 4.51324 18.6627 4.36442 18.9658 4.30413C19.2689 4.24384 19.5831 4.27479 19.8686 4.39305C20.1541 4.51131 20.3981 4.71158 20.5698 4.96853C20.7415 5.22548 20.8331 5.52758 20.8331 5.83661C20.8336 6.04192 20.7935 6.2453 20.7151 6.43507C20.6367 6.62484 20.5217 6.79727 20.3765 6.94245C20.2313 7.08763 20.0589 7.2027 19.8691 7.28107C19.6793 7.35944 19.476 7.39955 19.2706 7.39911ZM12.5 8.4404C13.3241 8.4404 14.1297 8.68479 14.815 9.14265C15.5002 9.6005 16.0343 10.2513 16.3497 11.0127C16.665 11.7741 16.7476 12.6119 16.5868 13.4202C16.426 14.2285 16.0292 14.9709 15.4464 15.5537C14.8637 16.1364 14.1212 16.5333 13.3129 16.694C12.5046 16.8548 11.6668 16.7723 10.9054 16.4569C10.144 16.1415 9.49325 15.6075 9.03539 14.9222C8.57753 14.237 8.33315 13.4314 8.33315 12.6073C8.33433 11.5025 8.77372 10.4433 9.5549 9.66215C10.3361 8.88097 11.3952 8.44159 12.5 8.4404ZM12.5 6.35726C11.2639 6.35726 10.0555 6.72381 9.02769 7.41057C7.99988 8.09733 7.1988 9.07345 6.72576 10.2155C6.25271 11.3575 6.12894 12.6142 6.37009 13.8266C6.61125 15.039 7.20651 16.1526 8.08058 17.0267C8.95466 17.9008 10.0683 18.496 11.2807 18.7372C12.4931 18.9783 13.7497 18.8546 14.8918 18.3815C16.0338 17.9085 17.0099 17.1074 17.6967 16.0796C18.3834 15.0518 18.75 13.8434 18.75 12.6073C18.75 10.9497 18.0915 9.35994 16.9194 8.18784C15.7473 7.01574 14.1576 6.35726 12.5 6.35726Z" fill="white"/>
</svg>
