<svg width="60" height="62" viewBox="0 0 60 62" fill="none" xmlns="http://www.w3.org/2000/svg">
<g clip-path="url(#clip0_942_5757)">
<path fill-rule="evenodd" clip-rule="evenodd" d="M43.8823 41.6072C44.4298 41.3242 45.0588 41.2586 45.65 41.4228C46.2412 41.5871 46.7535 41.9698 47.0898 42.4984L47.2348 42.7619L52.2348 53.0953C52.4132 53.4638 52.5037 53.871 52.4988 54.283C52.4939 54.6951 52.3936 55.0999 52.2064 55.4637C52.0193 55.8275 51.7506 56.1398 51.4228 56.3745C51.0951 56.6091 50.7177 56.7594 50.3223 56.8127L49.9998 56.8334H9.99983C9.601 56.8335 9.20794 56.735 8.85345 56.5462C8.49896 56.3573 8.19334 56.0836 7.9621 55.7478C7.73087 55.412 7.58073 55.0239 7.52424 54.616C7.46774 54.208 7.50651 53.792 7.63733 53.4027L7.76233 53.0927L12.7623 42.7594C13.0426 42.1608 13.5354 41.6969 14.1382 41.4643C14.7411 41.2317 15.4075 41.2482 15.9988 41.5105C16.5901 41.7727 17.0608 42.2605 17.3129 42.8723C17.565 43.4841 17.5792 44.1728 17.3523 44.795L17.2348 45.0714L14.0448 51.6667H45.9548L42.7648 45.0714C42.4688 44.4589 42.4202 43.7499 42.6297 43.1003C42.8393 42.4507 43.2898 41.9137 43.8823 41.6072ZM29.9998 5.16669C34.6411 5.16669 39.0923 7.07189 42.3742 10.4632C45.6561 13.8545 47.4998 18.454 47.4998 23.25C47.4998 29.4035 44.2773 34.4023 40.9423 37.9492C39.1001 39.8826 37.075 41.6204 34.8973 43.1365L33.9648 43.772L33.1348 44.3119C33.0048 44.392 32.8798 44.4669 32.7623 44.5444L32.1198 44.9268C30.7998 45.7018 29.1998 45.7018 27.8798 44.9268L27.2373 44.5419L26.4623 44.0536C26.3193 43.9606 26.1768 43.8668 26.0348 43.772L25.1023 43.1365C22.9247 41.6204 20.8996 39.8826 19.0573 37.9492C15.7223 34.4023 12.4998 29.4035 12.4998 23.25C12.4998 18.454 14.3436 13.8545 17.6255 10.4632C20.9073 7.07189 25.3585 5.16669 29.9998 5.16669ZM29.9998 18.0834C28.6737 18.0834 27.402 18.6277 26.4643 19.5966C25.5266 20.5656 24.9998 21.8797 24.9998 23.25C24.9998 24.6203 25.5266 25.9345 26.4643 26.9034C27.402 27.8723 28.6737 28.4167 29.9998 28.4167C31.3259 28.4167 32.5977 27.8723 33.5354 26.9034C34.473 25.9345 34.9998 24.6203 34.9998 23.25C34.9998 21.8797 34.473 20.5656 33.5354 19.5966C32.5977 18.6277 31.3259 18.0834 29.9998 18.0834Z" fill="black"/>
</g>
<defs>
<clipPath id="clip0_942_5757">
<rect width="60" height="62" fill="white"/>
</clipPath>
</defs>
</svg>
