<svg width="30" height="26" viewBox="0 0 30 26" fill="none" xmlns="http://www.w3.org/2000/svg">
<path d="M30 3.06905C28.8747 3.5784 27.684 3.91396 26.4656 4.06514C27.746 3.28414 28.709 2.04338 29.1737 0.575571C27.9632 1.31293 26.641 1.8303 25.2638 2.10551C24.6838 1.4724 23.9863 0.968737 23.2137 0.625144C22.4411 0.281552 21.6095 0.105205 20.7694 0.106823C17.3681 0.106823 14.6156 2.93233 14.6156 6.4154C14.6132 6.89988 14.6665 7.38292 14.7744 7.85419C12.3354 7.73509 9.9472 7.087 7.76249 5.95137C5.57777 4.81574 3.64468 3.21759 2.08687 1.25916C1.54036 2.21887 1.25133 3.31387 1.25 4.42973C1.25 6.61722 2.34562 8.55081 4 9.68362C3.01983 9.65938 2.05974 9.38915 1.20125 8.89586V8.97398C1.20125 12.0339 3.32625 14.5794 6.13875 15.1589C5.60986 15.3057 5.06486 15.3801 4.5175 15.3802C4.12911 15.3809 3.74161 15.3417 3.36062 15.263C4.1425 17.7695 6.41813 19.5924 9.11375 19.6445C6.92336 21.4029 4.23414 22.3533 1.46875 22.3463C0.977886 22.3456 0.487478 22.3151 0 22.2552C2.81324 24.1264 6.0834 25.1162 9.42125 25.1067C20.7563 25.1067 26.9487 15.4909 26.9487 7.15107C26.9487 6.87763 26.9419 6.6042 26.9294 6.33727C28.1313 5.44669 29.1711 4.33995 30 3.06905Z" fill="white"/>
</svg>
