<svg width="60" height="60" viewBox="0 0 60 60" fill="none" xmlns="http://www.w3.org/2000/svg">
<path d="M40.1597 26.243H41.9023C43.1342 26.2464 44.3546 26.0053 45.4927 25.5338C46.6309 25.0623 47.6642 24.3697 48.5328 23.4961L58.1246 13.8281L55.5207 11.2031L45.7261 20.9977L43.6906 18.9621L53.4851 9.16641L50.7898 6.55195L41.0316 16.309L39.0019 14.2734L48.7965 4.47773L46.1715 1.875L36.5035 11.4668C35.6298 12.3356 34.9371 13.3691 34.4656 14.5074C33.9941 15.6457 33.7531 16.8663 33.7566 18.0984V19.8398L28.7023 24.8941L5.62458 1.875C0.435516 8.30508 3.49997 20.1223 9.34177 25.9652L19.3613 35.9848C22.4726 39.0961 23.0902 39.3738 26.6199 37.9535C27.3804 37.6477 27.657 37.6816 28.366 38.3895L29.8894 39.8109C30.2328 40.1625 30.241 40.2656 30.241 40.9383V41.5875C30.241 44.0578 31.8207 45.4781 32.8613 46.5375L44.9996 58.125L53.4371 49.6875L35.1054 31.2973L40.1597 26.243Z" fill="black"/>
<path d="M26.6449 41.5535C23.1504 42.2695 21.007 42.9293 16.909 38.8312C16.8434 38.7656 16.7754 38.7023 16.7098 38.6367L14.4246 36.3516L1.875 48.75L11.25 58.125L28.125 41.25L26.6449 41.5535Z" fill="black"/>
</svg>
